<?xml version="1.0" encoding="UTF-8" standalone="no"?>
<svg
   xmlns:dc="http://purl.org/dc/elements/1.1/"
   xmlns:cc="http://creativecommons.org/ns#"
   xmlns:rdf="http://www.w3.org/1999/02/22-rdf-syntax-ns#"
   xmlns:svg="http://www.w3.org/2000/svg"
   xmlns="http://www.w3.org/2000/svg"
   id="svg8"
   version="1.1"
   viewBox="0 0 210 297"
   height="297mm"
   width="210mm">
  <defs
     id="defs2" />
  <metadata
     id="metadata5">
    <rdf:RDF>
      <cc:Work
         rdf:about="">
        <dc:format>image/svg+xml</dc:format>
        <dc:type
           rdf:resource="http://purl.org/dc/dcmitype/StillImage" />
        <dc:title></dc:title>
      </cc:Work>
    </rdf:RDF>
  </metadata>
  <g
     id="layer1">
    <g
       transform="translate(-57.186911,207.17588)"
       id="text3701"
       style="font-style:normal;font-weight:normal;font-size:10.58333302px;line-height:1.25;font-family:sans-serif;letter-spacing:0px;word-spacing:0px;fill:#000000;fill-opacity:1;stroke:none;stroke-width:0.26458332"
       aria-label="By
    Xorva">
      <path
         id="path3715"
         style="font-size:12.69999981px;line-height:19.43000031px;letter-spacing:0px;stroke-width:0.26458332"
         d="m 58.439548,65.792851 v 3.392041 h 2.009179 q 1.010791,0 1.494483,-0.415478 0.489892,-0.42168 0.489892,-1.283643 0,-0.868164 -0.489892,-1.277441 -0.483692,-0.415479 -1.494483,-0.415479 z m 0,-3.807519 v 2.790527 h 1.85415 q 0.917773,0 1.364258,-0.341064 0.452685,-0.347266 0.452685,-1.054199 0,-0.700733 -0.452685,-1.047999 -0.446485,-0.347265 -1.364258,-0.347265 z m -1.252637,-1.029395 h 3.199805 q 1.43247,0 2.207617,0.595313 0.775146,0.595312 0.775146,1.69292 0,0.84956 -0.396875,1.351855 -0.396875,0.502295 -1.16582,0.626319 0.923975,0.198437 1.432471,0.830957 0.514697,0.626318 0.514697,1.568896 0,1.240234 -0.843359,1.916162 -0.84336,0.675928 -2.399854,0.675928 h -3.323828 z" />
      <path
         id="path3717"
         style="font-size:12.69999981px;line-height:19.43000031px;letter-spacing:0px;stroke-width:0.26458332"
         d="m 68.733492,70.859209 q -0.483691,1.240234 -0.942578,1.618506 -0.458886,0.378271 -1.227832,0.378271 H 65.65151 v -0.95498 h 0.669727 q 0.471289,0 0.731738,-0.223243 0.260449,-0.223242 0.576709,-1.054199 l 0.204639,-0.520898 -2.809131,-6.833692 h 1.209228 l 2.17041,5.432227 2.17041,-5.432227 h 1.209229 z" />
      <path
         id="path3719"
         style="font-size:12.69999981px;line-height:19.43000031px;letter-spacing:0px;stroke-width:0.26458332"
         d="m 72.913082,80.385937 h 1.345654 l 2.300635,3.441651 2.313037,-3.441651 h 1.345654 l -2.976562,4.446241 3.175,4.812109 h -1.345655 l -2.604492,-3.937744 -2.623096,3.937744 h -1.351855 l 3.305225,-4.942334 z" />
      <path
         id="path3721"
         style="font-size:12.69999981px;line-height:19.43000031px;letter-spacing:0px;stroke-width:0.26458332"
         d="m 84.707711,83.498926 q -0.917773,0 -1.451074,0.719336 -0.533301,0.713134 -0.533301,1.95957 0,1.246435 0.5271,1.965771 0.5333,0.713135 1.457275,0.713135 0.911572,0 1.444873,-0.719336 0.533301,-0.719336 0.533301,-1.95957 0,-1.234033 -0.533301,-1.953369 -0.533301,-0.725537 -1.444873,-0.725537 z m 0,-0.967383 q 1.488281,0 2.337842,0.967383 0.84956,0.967382 0.84956,2.678906 0,1.705322 -0.84956,2.678906 -0.849561,0.967383 -2.337842,0.967383 -1.494482,0 -2.344043,-0.967383 -0.843359,-0.973584 -0.843359,-2.678906 0,-1.711524 0.843359,-2.678906 0.849561,-0.967383 2.344043,-0.967383 z" />
      <path
         id="path3723"
         style="font-size:12.69999981px;line-height:19.43000031px;letter-spacing:0px;stroke-width:0.26458332"
         d="m 93.804829,83.765576 q -0.192236,-0.111621 -0.421679,-0.16123 -0.223243,-0.05581 -0.496094,-0.05581 -0.967383,0 -1.488281,0.63252 -0.514698,0.626318 -0.514698,1.804541 v 3.658691 h -1.147216 v -6.945312 h 1.147216 v 1.079003 q 0.359668,-0.632519 0.936377,-0.936377 0.576709,-0.310058 1.401465,-0.310058 0.117822,0 0.260449,0.0186 0.142627,0.0124 0.31626,0.04341 z" />
      <path
         id="path3725"
         style="font-size:12.69999981px;line-height:19.43000031px;letter-spacing:0px;stroke-width:0.26458332"
         d="m 94.195502,82.698975 h 1.209228 l 2.17041,5.829101 2.17041,-5.829101 h 1.20923 l -2.604493,6.945312 h -1.550293 z" />
      <path
         id="path3727"
         style="font-size:12.69999981px;line-height:19.43000031px;letter-spacing:0px;stroke-width:0.26458332"
         d="m 105.68627,86.153027 q -1.38286,0 -1.91616,0.31626 -0.5333,0.31626 -0.5333,1.079004 0,0.607715 0.39687,0.967383 0.40308,0.353466 1.09141,0.353466 0.94878,0 1.51929,-0.669726 0.57671,-0.675928 0.57671,-1.792139 v -0.254248 z m 2.27583,-0.471289 v 3.962549 h -1.14101 v -1.054199 q -0.39068,0.632519 -0.97359,0.936377 -0.58291,0.297656 -1.42627,0.297656 -1.0666,0 -1.69912,-0.595313 -0.62632,-0.601513 -0.62632,-1.606103 0,-1.172022 0.78135,-1.767334 0.78755,-0.595313 2.34404,-0.595313 h 1.59991 v -0.111621 q 0,-0.787548 -0.5209,-1.215429 -0.5147,-0.434082 -1.45108,-0.434082 -0.59531,0 -1.15961,0.142627 -0.56431,0.142627 -1.08521,0.427881 v -1.0542 q 0.62632,-0.241845 1.21543,-0.359668 0.58911,-0.124023 1.14722,-0.124023 1.50688,0 2.25102,0.781348 0.74414,0.781347 0.74414,2.368847 z" />
    </g>
    <flowRoot
       style="fill:black;fill-opacity:1;stroke:none;font-family:sans-serif;font-style:normal;font-weight:normal;font-size:40px;line-height:1.25;letter-spacing:0px;word-spacing:0px"
       id="flowRoot3705"
       xml:space="preserve"><flowRegion
         id="flowRegion3707"><rect
           y="196.8054"
           x="408.57144"
           height="85.714287"
           width="162.85715"
           id="rect3709" /></flowRegion><flowPara
         id="flowPara3711"></flowPara></flowRoot>    <g
       id="flowRoot3730"
       style="font-style:normal;font-weight:normal;font-size:40px;line-height:1.25;font-family:sans-serif;letter-spacing:0px;word-spacing:0px;fill:#000000;fill-opacity:1;stroke:none" />
  </g>
</svg>
